<svg id="instagram" xmlns="http://www.w3.org/2000/svg" width="32.25" height="34.078" viewBox="0 0 32.25 34.078">
  <path id="Path_10627" data-name="Path 10627" d="M213.25,210.125A3.125,3.125,0,1,1,210.125,207,3.125,3.125,0,0,1,213.25,210.125Zm0,0" transform="translate(-193.799 -192.923)" fill="#fff"/>
  <path id="Path_10628" data-name="Path 10628" d="M150.478,137.645a3.1,3.1,0,0,0-1.779-1.779,5.187,5.187,0,0,0-1.741-.323c-.989-.045-1.285-.055-3.788-.055s-2.8.009-3.788.055a5.191,5.191,0,0,0-1.741.323,3.106,3.106,0,0,0-1.779,1.779,5.19,5.19,0,0,0-.323,1.741c-.045.989-.055,1.285-.055,3.788s.01,2.8.055,3.788a5.188,5.188,0,0,0,.323,1.741,3.1,3.1,0,0,0,1.779,1.779,5.179,5.179,0,0,0,1.741.323c.989.045,1.285.055,3.788.055s2.8-.009,3.788-.055a5.179,5.179,0,0,0,1.741-.323,3.1,3.1,0,0,0,1.779-1.779,5.192,5.192,0,0,0,.323-1.741c.045-.989.055-1.285.055-3.788s-.009-2.8-.055-3.788A5.181,5.181,0,0,0,150.478,137.645Zm-7.308,10.343a4.814,4.814,0,1,1,4.814-4.814A4.814,4.814,0,0,1,143.17,147.988Zm5-8.693a1.125,1.125,0,1,1,1.125-1.125A1.125,1.125,0,0,1,148.175,139.295Zm0,0" transform="translate(-126.844 -125.972)" fill="#fff"/>
  <path id="Path_10629" data-name="Path 10629" d="M0-3.464V30.614H32.25V-3.464ZM25.645,17.6a6.878,6.878,0,0,1-.436,2.276,4.794,4.794,0,0,1-2.742,2.742,6.883,6.883,0,0,1-2.275.436c-1,.046-1.319.057-3.865.057s-2.865-.011-3.865-.057a6.883,6.883,0,0,1-2.275-.436,4.794,4.794,0,0,1-2.742-2.742A6.877,6.877,0,0,1,7.008,17.6c-.046-1-.057-1.319-.057-3.865s.011-2.865.057-3.865A6.879,6.879,0,0,1,7.443,7.6a4.8,4.8,0,0,1,2.742-2.742,6.885,6.885,0,0,1,2.276-.436c1-.046,1.319-.057,3.865-.057s2.865.011,3.865.057a6.886,6.886,0,0,1,2.276.435A4.795,4.795,0,0,1,25.209,7.6a6.878,6.878,0,0,1,.436,2.276c.046,1,.056,1.319.056,3.865S25.691,16.6,25.645,17.6Zm0,0" transform="translate(0 3.464)" fill="#fff"/>
</svg>
