<svg xmlns="http://www.w3.org/2000/svg" width="98.283" height="103.726" viewBox="0 0 98.283 103.726">
  <g id="Group_18503" data-name="Group 18503" transform="translate(-12317.731 -1290.553)">
    <path id="Path_23899" data-name="Path 23899" d="M553.632,510.729a1.75,1.75,0,0,1-.837-3.289c.8-.434,1.62-.844,2.437-1.217a1.75,1.75,0,1,1,1.455,3.183c-.744.34-1.492.714-2.221,1.11a1.75,1.75,0,0,1-.834.212m34.066-1.17a1.742,1.742,0,0,1-.727-.159,36.609,36.609,0,0,0-24.443-2.082,1.751,1.751,0,1,1-.892-3.386,40.034,40.034,0,0,1,10.2-1.315,39.63,39.63,0,0,1,16.594,3.6,1.75,1.75,0,0,1-.729,3.342" transform="translate(11789.713 809.194)" fill="#fff"/>
    <path id="Path_23904" data-name="Path 23904" d="M573.107,567.035a1.745,1.745,0,0,1-1.219-.495L554.76,549.918a1.75,1.75,0,1,1,2.438-2.512l17.128,16.622a1.751,1.751,0,0,1-1.219,3.007" transform="translate(11788.439 785.172)" fill="#fff"/>
    <path id="Path_23905" data-name="Path 23905" d="M593.4,574.373a1.75,1.75,0,0,1-.877-3.266l18.046-10.428a1.75,1.75,0,1,1,1.751,3.03l-18.046,10.428a1.739,1.739,0,0,1-.874.235" transform="translate(11768.146 777.834)" fill="#fff"/>
    <path id="Path_23906" data-name="Path 23906" d="M594.656,581.808a4.427,4.427,0,1,0-4.426,4.426,4.426,4.426,0,0,0,4.426-4.426" transform="translate(11771.316 768.649)" fill="#fff"/>
    <path id="Path_23908" data-name="Path 23908" d="M597.794,530.817l-.156-1.042-4-1.446a20.913,20.913,0,0,0-1.719-4.141l1.823-3.894-.651-.846a24.606,24.606,0,0,0-4.623-4.61l-.846-.638-.286.13a43.556,43.556,0,0,0-9.793-25.889l1.693-1.693a6.415,6.415,0,0,0,0-9.064,6.446,6.446,0,0,0-9.064,0l-2.1,2.1a43.4,43.4,0,0,0-17.932-7.006v-4.858h2.513a5.873,5.873,0,0,0,0-11.747H534.464a5.883,5.883,0,0,0-5.873,5.874,5.891,5.891,0,0,0,5.873,5.873h2.514v4.858a43.765,43.765,0,0,0-17.932,7.006l-2.1-2.1a6.409,6.409,0,1,0-9.064,9.064l1.693,1.693A43.806,43.806,0,0,0,566.514,553.4c.508.2,1.016.378,1.536.521l1.459,4.011,1.042.143a22.466,22.466,0,0,0,3.282.235,22.727,22.727,0,0,0,3.282-.235l1.042-.143,1.445-4.024a20.146,20.146,0,0,0,4.141-1.719l3.881,1.823.846-.638a24.617,24.617,0,0,0,4.623-4.61l.651-.847-1.823-3.894a20.915,20.915,0,0,0,1.719-4.141l4-1.459.156-1.029a23.145,23.145,0,0,0,0-6.576m-25.147-50.658a3.016,3.016,0,0,1,4.115,0,2.916,2.916,0,0,1,0,4.115l-1.524,1.536a39.968,39.968,0,0,0-3.334-3.138c-.313-.274-.638-.534-.963-.795Zm-38.183-15.745a2.346,2.346,0,0,1-1.68-.7,2.358,2.358,0,0,1,1.68-4.037h18.193a2.38,2.38,0,0,1,1.667.69,2.423,2.423,0,0,1,.7,1.68,2.379,2.379,0,0,1-2.37,2.37H534.464Zm12.189,3.5v4.454a43.376,43.376,0,0,0-6.186,0v-4.454Zm-36.294,12.242a2.957,2.957,0,0,1,4.115,0l1.706,1.719a43.934,43.934,0,0,0-4.284,3.933l-1.537-1.536a2.916,2.916,0,0,1,0-4.115m33.2,76.235a40.3,40.3,0,0,1-30.291-66.9,40.188,40.188,0,0,1,25.681-13.453,37.881,37.881,0,0,1,9.246,0l.156.013a40.245,40.245,0,0,1,18.909,7.41,39.654,39.654,0,0,1,6.6,6.03,40.178,40.178,0,0,1,10.028,26.462l-.143.065A20.121,20.121,0,0,0,579.6,514.3l-1.445-4.024-1.042-.157c-.221-.026-.43-.065-.651-.078A33.454,33.454,0,1,0,553.908,547.9l.651.846a24.025,24.025,0,0,0,4.519,4.532,40.045,40.045,0,0,1-15.523,3.112m12.176-32.205a20.144,20.144,0,0,0-1.719,4.141L550,529.776l-.143,1.042a23.139,23.139,0,0,0,0,6.576l.143,1.029,4.011,1.459a19.866,19.866,0,0,0,1.471,3.673,29.629,29.629,0,0,1-10.2,2.435h-.032a1.656,1.656,0,0,0,.057-.282V538.78a1.75,1.75,0,1,0-3.5,0v6.927a1.65,1.65,0,0,0,.057.282h-.032a30.008,30.008,0,0,1-28.194-28.194c0-.009,0-.018,0-.027a1.633,1.633,0,0,0,.287.058h6.927a1.75,1.75,0,1,0,0-3.5h-6.927a1.638,1.638,0,0,0-.287.058c0-.009,0-.018,0-.026a30.008,30.008,0,0,1,28.194-28.194h.032a1.609,1.609,0,0,0-.057.281v6.927a1.75,1.75,0,0,0,3.5,0v-6.927a1.655,1.655,0,0,0-.057-.281h.032a30.01,30.01,0,0,1,27.595,23.753,19.889,19.889,0,0,0-2.331.208l-1.042.157-1.459,4a20.738,20.738,0,0,0-4.154,1.732l-3.868-1.81-.846.638a24.273,24.273,0,0,0-4.623,4.623l-.651.846Zm38.716,11.668-3.75,1.367-.222.912a16.52,16.52,0,0,1-2.032,4.884l-.482.807,1.693,3.62a20.4,20.4,0,0,1-2.487,2.487l-3.62-1.706-.795.495a17.1,17.1,0,0,1-4.9,2.032l-.912.221-1.354,3.763a22.554,22.554,0,0,1-3.516,0l-1.354-3.75-.534-.13-.39-.092a16.064,16.064,0,0,1-3.62-1.328c-.43-.208-.847-.456-1.263-.7l-.807-.508-3.62,1.706a20.5,20.5,0,0,1-2.487-2.5l.729-1.55.964-2.058-.5-.807q-.312-.527-.586-1.055a17.009,17.009,0,0,1-1.445-3.829l-.209-.912-3.75-1.367q-.078-.86-.078-1.758c0-.586.026-1.172.078-1.745l3.75-1.367.209-.912a17.239,17.239,0,0,1,2.031-4.884l.5-.807L558,520.777a20.473,20.473,0,0,1,2.487-2.5l3.62,1.706.807-.508a16.634,16.634,0,0,1,4.884-2.031l.924-.222,1.354-3.75c.43-.039.872-.065,1.315-.065a20.655,20.655,0,0,1,2.2.065l1.354,3.764.052.013.86.208a17.1,17.1,0,0,1,4.9,2.032l.795.495.156-.078,3.464-1.628c.052.039.1.091.156.13a21,21,0,0,1,2.331,2.357l-1.693,3.62.482.807a16.521,16.521,0,0,1,2.032,4.884l.222.912,3.75,1.367c.052.573.078,1.159.078,1.745s-.026,1.185-.078,1.758" transform="translate(11817.985 834.382)" fill="#fff"/>
    <path id="Path_23909" data-name="Path 23909" d="M558.658,616.156a2.355,2.355,0,1,0,2.355,2.355,2.355,2.355,0,0,0-2.355-2.355" transform="translate(11787.314 747.621)" fill="#fff"/>
    <path id="Path_23912" data-name="Path 23912" d="M649.6,624.575a10.123,10.123,0,1,1,10.123-10.123A10.134,10.134,0,0,1,649.6,624.575m0-16.744a6.622,6.622,0,1,0,6.622,6.621,6.629,6.629,0,0,0-6.622-6.621" transform="translate(11742.208 754.035)" fill="#fff"/>
  </g>
</svg>
