<svg xmlns="http://www.w3.org/2000/svg" width="87.664" height="88.126" viewBox="0 0 87.664 88.126">
  <g id="Group_18505" data-name="Group 18505" transform="translate(-12544.936 -963.88)">
    <path id="Path_23692" data-name="Path 23692" d="M363.08,253.514h10.134v-2.027a7.991,7.991,0,0,0-8.107-8.107H357" transform="translate(12257.885 722)" fill="none" stroke="#fff" stroke-width="3"/>
    <path id="Path_23693" data-name="Path 23693" d="M330,261.163v-7.649a10.135,10.135,0,0,1,10.134-10.134h54.724a10.135,10.135,0,0,0-10.134,10.134v64.858a10.134,10.134,0,0,1-10.134,10.134H330" transform="translate(12230.161 722)" fill="none" stroke="#fff" stroke-width="3"/>
    <line id="Line_93" data-name="Line 93" y1="10.134" transform="translate(12560.161 1030.236)" fill="none" stroke="#fff" stroke-width="3"/>
    <path id="Path_23694" data-name="Path 23694" d="M324,280.38a10.135,10.135,0,0,0,10.134,10.134H380.75a10.135,10.135,0,0,1-10.134-10.134Z" transform="translate(12224 759.992)" fill="none" stroke="#fff" stroke-width="3"/>
    <path id="Path_23695" data-name="Path 23695" d="M346.215,251.635l6.84,13.861,15.3,2.221-11.068,10.791,2.613,15.234-13.681-7.193-13.681,7.193,2.613-15.234-11.068-10.791,15.3-2.221Z" transform="translate(12224.081 730.476)" fill="none" stroke="#fff" stroke-width="3"/>
  </g>
</svg>
