<svg xmlns="http://www.w3.org/2000/svg" width="77.694" height="88.457" viewBox="0 0 77.694 88.457">
  <g id="Group_18504" data-name="Group 18504" transform="translate(-12690.927 -1482.466)">
    <path id="Path_23924" data-name="Path 23924" d="M1356.008,898.029a1.538,1.538,0,0,1-1.423-.952l-8.04-19.478a1.538,1.538,0,0,1,2.843-1.173l8.04,19.478a1.539,1.539,0,0,1-1.42,2.125" transform="translate(11358.825 606.991)" fill="#fff"/>
    <path id="Path_23927" data-name="Path 23927" d="M1392.155,895.629l-13.912-19.449c-.017-.026-.037-.049-.056-.075s-.055-.076-.083-.111l-.355-.515h-23.758c-.006,0-.012,0-.019,0s-.012,0-.018,0h-23.759l-14.406,20.15-.664.927.664.8a1.793,1.793,0,0,0,.183.229l26.363,32.165h-4.268v6.328h-3.753a10.1,10.1,0,0,0-10.081,10.081v14.7h-4.812a1.538,1.538,0,0,0,0,3.077h69.1a1.538,1.538,0,0,0,0-3.077h-4.812v-14.7a10.1,10.1,0,0,0-10.081-10.081h-3.753V929.75h-4.268l26.363-32.165a1.772,1.772,0,0,0,.183-.229l.664-.8Zm-17.5-17.072-6.142,14.88-11.415-14.88Zm-19.143,2.992,10.282,13.4H1355.51Zm11.278,16.48v0l-10.538,31.718h-4.554l-10.538-31.718v0Zm-14.354-3.076h-10.282l10.282-13.4Zm-20.649-16.4h19.063l-12.574,16.4h-18.228Zm-11.477,19.475,0,0h17.611v0l10.527,31.718h-2.128Zm49.568,41.124h3.753a7.01,7.01,0,0,1,7,7V960.85h-53.322V946.158a7.01,7.01,0,0,1,7-7h3.753v5.08h31.81Zm-3.078,2h-25.654v-8.341H1366.8Zm20.837-43.126-26.009,31.718H1359.5l10.527-31.718v0h17.611Zm-16.424-3.079,6.1-14.784h0l10.584,14.783Z" transform="translate(11375.802 606.991)" fill="#fff"/>
    <path id="Path_23928" data-name="Path 23928" d="M1396.7,1009.589H1386.49a1.538,1.538,0,0,1,0-3.076H1396.7a1.538,1.538,0,0,1,0,3.076m-14.792,0h-1.144a1.538,1.538,0,0,1,0-3.076h1.144a1.538,1.538,0,0,1,0,3.076" transform="translate(11341.037 535.929)" fill="#fff"/>
  </g>
</svg>
