<svg xmlns="http://www.w3.org/2000/svg" width="101.327" height="88.126" viewBox="0 0 101.327 88.126">
  <g id="Group_18502" data-name="Group 18502" transform="translate(-12303.846 -965.88)">
    <path id="Path_23706" data-name="Path 23706" d="M156.76,247.583l-2.6-2.2h-23.7c-1.883,0-3.692.2-5.025,1.531L83.415,288.658a6.9,6.9,0,0,0,0,9.853l30.011,29.944a7.062,7.062,0,0,0,9.988-.035l42.136-42.032a7.1,7.1,0,0,0,2.027-5.043v-23.7l-3.257-2.886" transform="translate(12224 722)" fill="none" stroke="#fff" stroke-width="3"/>
    <line id="Line_105" data-name="Line 105" x2="8.698" y2="8.698" transform="translate(12374.18 976.078)" fill="none" stroke="#fff" stroke-width="3"/>
    <path id="Path_23707" data-name="Path 23707" d="M114.549,255.346A13.673,13.673,0,1,1,127,274.656" transform="translate(12262.998 724.273)" fill="none" stroke="#fff" stroke-width="3"/>
    <rect id="Rectangle_80307" data-name="Rectangle 80307" width="10.873" height="10.873" rx="2" transform="translate(12335.037 995.649)" fill="none" stroke="#fff" stroke-width="3"/>
    <rect id="Rectangle_80308" data-name="Rectangle 80308" width="10.873" height="10.873" rx="2" transform="translate(12354.609 1010.871)" fill="none" stroke="#fff" stroke-width="3"/>
    <line id="Line_106" data-name="Line 106" y1="30.444" x2="17.396" transform="translate(12341.561 993.474)" fill="none" stroke="#fff" stroke-width="3"/>
  </g>
</svg>
