<svg xmlns="http://www.w3.org/2000/svg" width="99.001" height="109.533" viewBox="0 0 99.001 109.533">
  <g id="Group_18493" data-name="Group 18493" transform="translate(-3653.081 -1027.991)">
    <path id="Path_23802" data-name="Path 23802" d="M634.133,911.2l-14.656-2.572a4.186,4.186,0,0,1-3.129-2.465c-1-2.253.2-3.933.992-5.046a4.643,4.643,0,0,0,.94-1.777,2.516,2.516,0,0,0-4.405-2.054,2.423,2.423,0,0,0-.438,2.417l.052.178c.075.317.151.6.218.858.4,1.5.808,3.048-.867,4.825a4.166,4.166,0,0,1-3.791,1.252l-14.787-2.583,2.584-14.788a.523.523,0,0,0-.167-.5,1.038,1.038,0,0,0-.276-.211,5.15,5.15,0,0,0-1.077.233c-.263.07-.551.146-.87.223a6.178,6.178,0,1,1-.839-11.961,7.845,7.845,0,0,1,3.277,1.568c1.09.778,1.178.736,1.442.619a.508.508,0,0,0,.323-.4l2.57-14.651,39.873,6.967Zm-18.352-18.485a6.3,6.3,0,0,1,1.084.094,6.2,6.2,0,0,1,5.032,7.162,7.831,7.831,0,0,1-1.568,3.277c-.775,1.088-.735,1.177-.618,1.442a.511.511,0,0,0,.4.323l11.035,1.939,5.7-32.641-32.64-5.7-1.94,11.04a4.183,4.183,0,0,1-2.467,3.129c-2.25,1-3.932-.2-5.044-.992a4.668,4.668,0,0,0-1.777-.942,2.518,2.518,0,0,0-2.054,4.408,2.425,2.425,0,0,0,2.417.437l.179-.052c.317-.075.6-.15.858-.218,1.5-.4,3.046-.808,4.823.866a4.181,4.181,0,0,1,1.254,3.791l-1.953,11.173L609.68,903.2a.515.515,0,0,0,.5-.166,1.049,1.049,0,0,0,.214-.278,6.061,6.061,0,0,0-.234-1.076c-.07-.263-.146-.552-.222-.869a6.167,6.167,0,0,1,5.845-8.1" transform="translate(3110.981 163.635)" fill="#fff"/>
    <path id="Path_23804" data-name="Path 23804" d="M581.416,947.681l-14.69,2.336a.514.514,0,0,1-.487-.175c-.2-.212-.264-.284.116-1.565a7.838,7.838,0,0,0,.417-3.609A6.188,6.188,0,0,0,554.9,943.4a6.087,6.087,0,0,0,.84,5.955c.175.276.341.524.492.749a6.075,6.075,0,0,1,.571.943,1.077,1.077,0,0,1-.11.33.521.521,0,0,1-.419.321l-11.2,1.789-1.789-11.2a4.177,4.177,0,0,0-2.418-3.178c-2.224-1-3.555-.113-4.843.75-.222.148-.465.311-.74.485l-.152.107a2.42,2.42,0,0,1-2.429.372,2.517,2.517,0,0,1,.508-4.834,4.649,4.649,0,0,1,1.988.312c1.31.387,3.289.974,5.093-.7a4.182,4.182,0,0,0,1.314-3.76l-2.337-14.7-39.97,6.385,6.384,39.969,5.8,36.346,39.97-6.384,36.345-5.8ZM503.5,926.572l32.721-5.227,1.757,11.066a.511.511,0,0,1-.174.487c-.213.2-.286.262-1.565-.115a7.855,7.855,0,0,0-3.609-.417,6.188,6.188,0,0,0-1.27,11.877,6.09,6.09,0,0,0,5.954-.84c.276-.176.524-.341.75-.493a6.045,6.045,0,0,1,.943-.571,1.083,1.083,0,0,1,.33.11.522.522,0,0,1,.321.419l1.789,11.2-7.61,1.217L530,955.9a4.249,4.249,0,0,0-.759.26c-.057.024-.12.034-.176.06-.014.007-.025.018-.039.025a4.134,4.134,0,0,0-1.957,2.027l0,.009h0c-.035.078-.051.147-.082.222a5.639,5.639,0,0,0-.208.563,4.09,4.09,0,0,0,.938,3.92c.175.247.376.526.588.863l.105.151a2.436,2.436,0,0,1,.374,2.442,2.517,2.517,0,0,1-4.835-.52,4.635,4.635,0,0,1,.312-1.983c.388-1.307.974-3.284-.7-5.1a4.182,4.182,0,0,0-.736-.629c-.088-.061-.184-.1-.277-.158a4.179,4.179,0,0,0-.567-.281c-.116-.045-.234-.079-.354-.114a4.131,4.131,0,0,0-.574-.123c-.126-.018-.251-.033-.379-.039-.07,0-.137-.022-.206-.022a4.257,4.257,0,0,0-.671.054l-11.065,1.767Zm11.032,69.065-5.226-32.72,11.066-1.767a.512.512,0,0,1,.482.171c.2.217.268.29-.112,1.571a7.811,7.811,0,0,0-.417,3.606,6.167,6.167,0,0,0,2.477,4.041,6.236,6.236,0,0,0,.966.567c.1.049.207.086.312.13a6.138,6.138,0,0,0,.739.256c.12.032.239.061.36.086a6.035,6.035,0,0,0,.785.108c.108.008.215.023.323.025.046,0,.091.01.137.01a6.275,6.275,0,0,0,.989-.079,6.15,6.15,0,0,0,4.4-9.138c0-.007-.006-.013-.01-.02-.05-.088-.114-.169-.168-.254-.09-.14-.175-.283-.277-.418-.176-.276-.342-.524-.494-.752a6.37,6.37,0,0,1-.57-.935.536.536,0,0,1,.016-.074,2.238,2.238,0,0,1,.1-.271.488.488,0,0,1,.264-.278l11.345-1.812,1.789,11.2a4.179,4.179,0,0,0,2.419,3.178c2.223,1,3.554.113,4.842-.75.222-.149.466-.312.741-.485l.152-.108a2.42,2.42,0,0,1,2.428-.372,2.518,2.518,0,0,1-.508,4.834,4.645,4.645,0,0,1-1.988-.312c-1.31-.388-3.289-.974-5.092.7a4.182,4.182,0,0,0-1.315,3.761l1.758,11.071Zm36.348-5.806-1.759-11.065a.508.508,0,0,1,.175-.486.71.71,0,0,1,.141-.11l.007-.005a.442.442,0,0,1,.194-.041c.01,0,.018,0,.028,0s.056,0,.085.007.06,0,.1.01.074.015.11.021.085.016.139.028.116.029.176.044l.153.039c.127.035.269.075.433.124a7.844,7.844,0,0,0,3.609.416,6.2,6.2,0,0,0,5.21-5.866,6.244,6.244,0,0,0-.074-1.221,6.165,6.165,0,0,0-9.82-3.949c-.277.176-.524.342-.751.493a6.086,6.086,0,0,1-.942.572,1.088,1.088,0,0,1-.33-.11.519.519,0,0,1-.321-.419l-1.789-11.2,11.2-1.789a4.177,4.177,0,0,0,3.178-2.419c1.005-2.223.113-3.555-.75-4.843-.148-.221-.311-.465-.486-.74l-.107-.152a2.423,2.423,0,0,1-.372-2.428,2.517,2.517,0,0,1,4.834.508,4.65,4.65,0,0,1-.311,1.988c-.388,1.31-.974,3.288.7,5.093a4.188,4.188,0,0,0,3.76,1.314l11.072-1.758,5.226,32.72Z" transform="translate(3153.785 137.684)" fill="#fff"/>
    <path id="Path_23805" data-name="Path 23805" d="M648.242,895.487a2.562,2.562,0,0,1-.328-.027l-8.794-1.6a1.826,1.826,0,0,1-1.188-.751,1.908,1.908,0,0,1-.3-1.379,1.857,1.857,0,0,1,2.13-1.475l8.795,1.585a1.837,1.837,0,0,1-.314,3.646m-14.176-2.567a1.323,1.323,0,0,1-.328-.027,1.83,1.83,0,0,1-1.475-2.13,1.85,1.85,0,0,1,2.131-1.475,1.829,1.829,0,0,1,1.475,2.13,1.819,1.819,0,0,1-1.8,1.5" transform="translate(3088.429 151.392)" fill="#fff"/>
    <path id="Path_23806" data-name="Path 23806" d="M544.175,1045.852a2.3,2.3,0,1,0,.233,3.251,2.3,2.3,0,0,0-.233-3.251" transform="translate(3133.596 74.681)" fill="#fff"/>
  </g>
</svg>
