<svg xmlns="http://www.w3.org/2000/svg" width="84.06" height="92.608" viewBox="0 0 84.06 92.608">
  <g id="Group_18491" data-name="Group 18491" transform="translate(-3588.646 -559)">
    <path id="Path_23533" data-name="Path 23533" d="M57.44,26.264a20.321,20.321,0,0,1,40.07,4.783c0,3.273-1.713,7.918-4.2,12.783a144.8,144.8,0,0,1-8.73,14.434c5.684.547,10.258,1.724,12.627,3.145,1.75,1.05,2.5,2.365,2.5,3.579,0,1.354-1.01,2.878-3.288,4-3.605,1.781-10.861,3.058-19.226,3.058a69.607,69.607,0,0,1-12.729-1.084c-.037-.007-.072-.015-.107-.024-2.921,5.193-6.249,10.371-9.189,14.711,8,.7,14.469,2.3,17.775,4.279,2.161,1.29,3.142,2.874,3.142,4.366,0,1.681-1.321,3.514-4.149,4.912-4.888,2.416-14.728,4.125-26.07,4.125s-21.182-1.71-26.07-4.125c-2.828-1.4-4.149-3.231-4.149-4.912,0-1.5.987-3.084,3.159-4.376,3.312-1.97,9.77-3.567,17.759-4.268A191.1,191.1,0,0,1,25.032,66.592c-3.249-6.347-5.5-12.4-5.5-16.668A26.342,26.342,0,0,1,57.44,26.264Zm-18.6,62.7c-7.1.469-13.092,1.621-16.76,3.2a8.939,8.939,0,0,0-2.473,1.451c-.257.236-.485.429-.485.687,0,.357.356.607.774.928a13.049,13.049,0,0,0,3.559,1.74C28.51,98.735,36.67,99.86,45.865,99.86s17.355-1.125,22.409-2.892a13.049,13.049,0,0,0,3.559-1.74c.418-.322.774-.571.774-.928,0-.256-.225-.449-.481-.683a8.9,8.9,0,0,0-2.454-1.445c-3.665-1.578-9.672-2.734-16.784-3.2-3.274,4.692-5.643,7.793-5.643,7.793a1.738,1.738,0,0,1-2.762,0S42.115,93.659,38.841,88.967ZM45.865,92.8C49.218,88.257,57.916,76.116,63.6,65.008c2.949-5.76,5.122-11.208,5.122-15.083a22.86,22.86,0,1,0-45.721,0c0,3.875,2.173,9.323,5.122,15.083C33.815,76.116,42.512,88.257,45.865,92.8Zm36.43-31.233c-2.19,3.109-3.722,5.116-3.722,5.116a1.739,1.739,0,0,1-2.763,0s-1.532-2.006-3.722-5.114c-1.067.07-2.1.163-3.092.276l-.039,0c-.675,1.546-1.435,3.136-2.258,4.744q-.291.566-.591,1.138a68.214,68.214,0,0,0,11.084.844c6.643,0,12.54-.807,16.192-2.084a9.062,9.062,0,0,0,2.465-1.2,2.6,2.6,0,0,0,.312-.3,2.65,2.65,0,0,0-.323-.313,6.971,6.971,0,0,0-1.443-.8c-2.621-1.135-6.92-1.96-12.015-2.3ZM45.865,36.611A13.313,13.313,0,1,0,59.179,49.924,13.32,13.32,0,0,0,45.865,36.611ZM71.523,54.633a1.839,1.839,0,0,1,.2.246c2.2,3.307,4.205,6.108,5.471,7.836A168.541,168.541,0,0,0,90.21,42.247c2.191-4.279,3.823-8.32,3.823-11.2A16.843,16.843,0,0,0,60.607,28.1a26.526,26.526,0,0,1,6.771,6.634A10.5,10.5,0,1,1,69.351,38,26.208,26.208,0,0,1,72.2,49.924,19.513,19.513,0,0,1,71.523,54.633ZM45.865,40.087a9.836,9.836,0,1,1-9.837,9.837A9.842,9.842,0,0,1,45.865,40.087ZM77.191,24.043a7,7,0,1,1-7,7A7.008,7.008,0,0,1,77.191,24.043Z" transform="translate(3573 548.271)" fill="#fff" fill-rule="evenodd"/>
  </g>
</svg>
