<svg xmlns="http://www.w3.org/2000/svg" width="33.413" height="34.209" viewBox="0 0 33.413 34.209">
  <path id="linkedin" d="M33.413-5.526H0v34.21H33.413ZM11.582,20.551H7.606V8.589h3.976ZM9.594,6.955H9.568a2.072,2.072,0,1,1,.052-4.133,2.073,2.073,0,1,1-.026,4.133Zm16.325,13.6H21.944v-6.4c0-1.608-.576-2.705-2.014-2.705a2.177,2.177,0,0,0-2.04,1.454,2.723,2.723,0,0,0-.131.97v6.68H13.783s.052-10.84,0-11.963h3.976v1.694a3.947,3.947,0,0,1,3.583-1.975c2.616,0,4.578,1.71,4.578,5.384Zm0,0" transform="translate(0 5.526)" fill="#fff"/>
</svg>
