<svg xmlns="http://www.w3.org/2000/svg" width="90.061" height="88.126" viewBox="0 0 90.061 88.126">
  <g id="Group_18501" data-name="Group 18501" transform="translate(-12463.5 -962.88)">
    <path id="Path_23696" data-name="Path 23696" d="M264.2,264.372l-10,10.356a9.707,9.707,0,1,0,6.021,7.661l6.009-6.317" transform="translate(12224 742.555)" fill="none" stroke="#fff" stroke-width="3"/>
    <line id="Line_94" data-name="Line 94" x1="3.869" y2="3.869" transform="translate(12509.498 999.204)" fill="none" stroke="#fff" stroke-width="3"/>
    <path id="Path_23697" data-name="Path 23697" d="M266.608,283.008V242.38c-5.8,0-11.608,9.19-11.608,23.216v25.151l9.673,9.673v9.718c-1.935,1.764-3.887,4.541-3.887,7.694a9.676,9.676,0,0,0,19.353,0,8.993,8.993,0,0,0-5.792-8.857V290.747l-7.739-7.739" transform="translate(12237.086 722)" fill="none" stroke="#fff" stroke-width="3"/>
    <line id="Line_95" data-name="Line 95" x2="3.869" transform="translate(12499.824 1012.747)" fill="none" stroke="#fff" stroke-width="3"/>
    <line id="Line_96" data-name="Line 96" y2="7.739" transform="translate(12519.171 1005.008)" fill="none" stroke="#fff" stroke-width="3"/>
    <path id="Path_23698" data-name="Path 23698" d="M269,270.38v5.8h5.8" transform="translate(12250.171 748.171)" fill="none" stroke="#fff" stroke-width="3"/>
    <line id="Line_97" data-name="Line 97" y2="7.739" transform="translate(12519.171 977.923)" fill="none" stroke="#fff" stroke-width="3"/>
    <path id="Path_23699" data-name="Path 23699" d="M269,249.184v-5.8h5.8" transform="translate(12250.171 722.935)" fill="none" stroke="#fff" stroke-width="3"/>
    <line id="Line_98" data-name="Line 98" y2="7.739" transform="translate(12552.061 991.465)" fill="none" stroke="#fff" stroke-width="3"/>
    <line id="Line_99" data-name="Line 99" y2="7.739" transform="translate(12519.171 1005.008)" fill="none" stroke="#fff" stroke-width="3"/>
    <line id="Line_100" data-name="Line 100" y2="7.739" transform="translate(12519.171 991.465)" fill="none" stroke="#fff" stroke-width="3"/>
    <line id="Line_101" data-name="Line 101" y2="7.739" transform="translate(12552.061 1005.008)" fill="none" stroke="#fff" stroke-width="3"/>
    <path id="Path_23700" data-name="Path 23700" d="M288.8,270.38v5.8H283" transform="translate(12263.257 748.171)" fill="none" stroke="#fff" stroke-width="3"/>
    <line id="Line_102" data-name="Line 102" y2="7.739" transform="translate(12552.061 977.923)" fill="none" stroke="#fff" stroke-width="3"/>
    <path id="Path_23701" data-name="Path 23701" d="M288.8,249.184v-5.8H283" transform="translate(12263.257 722.935)" fill="none" stroke="#fff" stroke-width="3"/>
    <line id="Line_103" data-name="Line 103" x2="9.673" transform="translate(12530.779 966.314)" fill="none" stroke="#fff" stroke-width="3"/>
    <line id="Line_104" data-name="Line 104" x2="9.673" transform="translate(12530.779 1024.355)" fill="none" stroke="#fff" stroke-width="3"/>
  </g>
</svg>
