<svg id="youtube" xmlns="http://www.w3.org/2000/svg" width="33.745" height="34.078" viewBox="0 0 33.745 34.078">
  <path id="Path_10696" data-name="Path 10696" d="M224.113,214.361,229.6,211.2l-5.488-3.161Zm0,0" transform="translate(-209.342 -193.994)" fill="#fff"/>
  <path id="Path_10697" data-name="Path 10697" d="M0-1.276V32.8H33.745V-1.276ZM27.415,15.947a27.847,27.847,0,0,1-.434,5.072,2.642,2.642,0,0,1-1.859,1.858c-1.65.434-8.25.434-8.25.434s-6.583,0-8.25-.452A2.642,2.642,0,0,1,6.764,21a27.725,27.725,0,0,1-.434-5.072,27.829,27.829,0,0,1,.434-5.072A2.7,2.7,0,0,1,8.622,8.982c1.65-.434,8.25-.434,8.25-.434s6.6,0,8.25.452a2.642,2.642,0,0,1,1.859,1.859,26.426,26.426,0,0,1,.434,5.089Zm0,0" transform="translate(0 1.276)" fill="#fff"/>
</svg>
