<svg xmlns="http://www.w3.org/2000/svg" width="100.113" height="95.607" viewBox="0 0 100.113 95.607">
  <g id="Group_18494" data-name="Group 18494" transform="translate(-1734 -2310.38)">
    <path id="Path_24131" data-name="Path 24131" d="M371.166,170.38h25.751a4.254,4.254,0,0,1,4.068,5.5l-9.75,31.912a4.258,4.258,0,0,1-4.07,3.01H335" transform="translate(1430.912 2159.147)" fill="none" stroke="#fff" stroke-width="4"/>
    <line id="Line_153" data-name="Line 153" x2="27.657" transform="translate(1761.657 2329.527)" fill="none" stroke="#fff" stroke-width="4"/>
    <path id="Path_24132" data-name="Path 24132" d="M407.225,230.2H361.46a4.256,4.256,0,0,1-4.076-3.032L339.147,166.38H320" transform="translate(1414 2154.637)" fill="none" stroke="#fff" stroke-width="4"/>
    <path id="Path_24133" data-name="Path 24133" d="M347.782,205.763a6.4,6.4,0,1,1-6.4-6.4A6.4,6.4,0,0,1,347.782,205.763Z" transform="translate(1430.895 2191.827)" fill="none" stroke="#fff" stroke-width="4"/>
    <path id="Path_24134" data-name="Path 24134" d="M367.8,205.763a6.4,6.4,0,1,1-6.4-6.4A6.4,6.4,0,0,1,367.8,205.763Z" transform="translate(1453.46 2191.827)" fill="none" stroke="#fff" stroke-width="4"/>
    <path id="Path_24135" data-name="Path 24135" d="M372.015,176.38l-15.043,15.043L341.929,176.38" transform="translate(1438.724 2165.912)" fill="none" stroke="#fff" stroke-width="4"/>
    <line id="Line_154" data-name="Line 154" y1="46.804" transform="translate(1795.696 2310.38)" fill="none" stroke="#fff" stroke-width="4"/>
  </g>
</svg>
