<svg xmlns="http://www.w3.org/2000/svg" xmlns:xlink="http://www.w3.org/1999/xlink" width="137.536" height="236.36" viewBox="0 0 137.536 236.36">
  <defs>
    <clipPath id="clip-path">
      <rect id="Rectangle_80381" data-name="Rectangle 80381" width="43.009" height="31.36" transform="translate(0 0)" fill="none"/>
    </clipPath>
  </defs>
  <g id="Group_18498" data-name="Group 18498" transform="translate(-130.279 -1346.64)">
    <g id="Group_18259" data-name="Group 18259" transform="translate(130.279 1445.763)">
      <path id="Path_23195" data-name="Path 23195" d="M229.4,87.267a3.708,3.708,0,0,1,0,7.416H217.7v11.7a3.708,3.708,0,0,1-7.416,0v-11.7h-11.7a3.708,3.708,0,0,1,0-7.416h11.7v-11.7a3.708,3.708,0,0,1,7.416,0v11.7Z" transform="translate(-95.567 27.148)" fill="#fbb040"/>
      <path id="Path_23196" data-name="Path 23196" d="M261.66,101.663a7.173,7.173,0,0,1,0,14.345H239.021v22.639a7.173,7.173,0,0,1-14.345,0V116.008H202.037a7.173,7.173,0,0,1,0-14.345h22.639V79.024a7.173,7.173,0,0,1,14.345,0v22.639Z" transform="translate(-194.874 -99.861)" fill="#fb7621"/>
    </g>
    <g id="Group_18485" data-name="Group 18485" transform="translate(224.806 1346.64)">
      <g id="Group_18379" data-name="Group 18379" clip-path="url(#clip-path)">
        <path id="Path_24119" data-name="Path 24119" d="M31.863,16.263,34.495,26.4a39.813,39.813,0,0,1-4.887,2.164L26.969,18.4a41.754,41.754,0,0,0,4.894-2.137M18.688,20.608l2.641,10.167a40.925,40.925,0,0,1-5.3.559L13.4,21.2a43.1,43.1,0,0,0,5.292-.593M3.151,26.684,1.11,18.826a12.02,12.02,0,0,0,3.2,1.469l2.55,9.814c-2.059-.831-3.364-2.024-3.7-3.425m5.566,4.034L6.13,20.76c.251.051.507.1.764.14a29.387,29.387,0,0,0,4.81.349L14.331,31.36a26.891,26.891,0,0,1-4.074-.323c-.543-.088-1.054-.2-1.54-.319m14.236-.249L20.311,20.3q1.12-.234,2.255-.527c.974-.253,1.913-.54,2.837-.842L28.045,29.1c-.921.3-1.86.588-2.836.841-.758.2-1.51.369-2.256.526M38.8,23.621a25.8,25.8,0,0,1-2.827,1.935L33.351,15.447a28.49,28.49,0,0,0,3.456-2.318q.6-.478,1.139-.972l2.574,9.906A17.733,17.733,0,0,1,38.8,23.621m3.013-3.12-2.443-9.4-.484.126A11.926,11.926,0,0,0,40.85,8.5l2.042,7.858A5.082,5.082,0,0,1,41.817,20.5" fill="#f69124"/>
        <path id="Path_24120" data-name="Path 24120" d="M4.207,7.753A37.306,37.306,0,0,1,17.577,1.49h0l.213-.056a.161.161,0,0,0,.042-.011A37.477,37.477,0,0,1,32.754.337c4.05.662,6.6,2.288,7.106,4.354.564,2.047-.873,4.708-4.089,7.259a37.532,37.532,0,0,1-13.6,6.322,43.284,43.284,0,0,1-9.18,1.39l-.012-.05-.238.062a28.445,28.445,0,0,1-5.519-.308C3.183,18.7.636,17.085.122,15.028L.115,15C-.437,12.954,1,10.3,4.207,7.753" fill="#f3bf33"/>
      </g>
    </g>
  </g>
</svg>
