<svg xmlns="http://www.w3.org/2000/svg" width="209.162" height="76.313" viewBox="0 0 209.162 76.313">
  <g id="Group_18224" data-name="Group 18224" transform="translate(-48.852 -272.293)">
    <g id="Group_18222" data-name="Group 18222" transform="translate(48.852 272.293)">
      <g id="Group_18220" data-name="Group 18220" transform="translate(0 0)">
        <path id="Path_23123" data-name="Path 23123" d="M48.852,272.293v76.313h76.313V272.293Z" transform="translate(-48.852 -272.293)" fill="#fff"/>
      </g>
      <g id="Group_18221" data-name="Group 18221" transform="translate(13.221 16.033)">
        <path id="Path_23124" data-name="Path 23124" d="M90.486,324.1c0,3.934-.864,6.957-5.277,6.957-4.942,0-5.469-3.55-5.469-6.428V302.07l-6.333,1.4v22.069c0,8.4,5.853,11.611,11.514,11.611,7.389,0,11.9-4.75,11.9-10.7V302.07l-6.333,1.4Z" transform="translate(-73.406 -302.07)" fill="#f8631e"/>
        <path id="Path_23125" data-name="Path 23125" d="M135.443,317.906a11.86,11.86,0,0,0-6.849,2.143v-3.587l-6.11,1.478v33.717l6.092-1.4v-8.629a12.03,12.03,0,0,0,6.867,2.153,12.949,12.949,0,0,0,0-25.878Zm-.389,20.318a7.4,7.4,0,1,1,7.053-7.389A7.17,7.17,0,0,1,135.054,338.224Z" transform="translate(-96.059 -308.713)" fill="#f8631e"/>
      </g>
    </g>
    <g id="Group_18223" data-name="Group 18223" transform="translate(138.629 294.739)">
      <path id="Path_23126" data-name="Path 23126" d="M216.7,313.981h8.109v2.132h-5.573v2.665h4.83v1.971h-4.83v4.765H216.7Z" transform="translate(-216.101 -313.981)" fill="#fff"/>
      <path id="Path_23127" data-name="Path 23127" d="M233.637,322.265c.129-2.148,2.051-2.794,3.925-2.794,1.664,0,3.667.372,3.667,2.374v4.345a4.278,4.278,0,0,0,.291,1.857h-2.326a3.429,3.429,0,0,1-.162-.808,3.829,3.829,0,0,1-2.81,1.034c-1.583,0-2.843-.791-2.843-2.5,0-1.889,1.421-2.342,2.843-2.535,1.405-.21,2.714-.161,2.714-1.1,0-.985-.679-1.131-1.487-1.131-.872,0-1.437.355-1.518,1.26Zm5.3,1.7a4.562,4.562,0,0,1-1.906.485c-.711.145-1.357.388-1.357,1.228,0,.856.662,1.066,1.4,1.066a1.705,1.705,0,0,0,1.858-1.923Z" transform="translate(-223.8 -316.515)" fill="#fff"/>
      <path id="Path_23128" data-name="Path 23128" d="M250.3,326.513l4.345-4.894h-4.022v-1.728h7.043v1.728l-4.345,4.894h4.652v1.728H250.3Z" transform="translate(-231.61 -316.709)" fill="#fff"/>
      <path id="Path_23129" data-name="Path 23129" d="M275.169,313.981h2.294v4.2h.032a3.083,3.083,0,0,1,2.632-1.244c1.664,0,3.457,1.341,3.457,4.394,0,3.068-1.793,4.409-3.457,4.409a2.89,2.89,0,0,1-2.745-1.292h-.032v1.066h-2.181Zm4.167,4.684c-1.357,0-1.955,1.276-1.955,2.681,0,1.389.6,2.665,1.955,2.665s1.954-1.276,1.954-2.665C281.29,319.941,280.693,318.665,279.336,318.665Z" transform="translate(-243.089 -313.981)" fill="#fff"/>
      <path id="Path_23130" data-name="Path 23130" d="M295.042,324.43c.065,1.453.775,2.115,2.051,2.115a1.888,1.888,0,0,0,1.809-1.082h2.019a3.757,3.757,0,0,1-3.909,2.811,4.079,4.079,0,0,1-4.264-4.393,4.188,4.188,0,0,1,4.264-4.41c2.843,0,4.216,2.391,4.054,4.959Zm3.731-1.454c-.21-1.163-.711-1.777-1.825-1.777a1.807,1.807,0,0,0-1.906,1.777Z" transform="translate(-251.203 -316.515)" fill="#fff"/>
      <path id="Path_23131" data-name="Path 23131" d="M310.838,319.7H313v1.131h.032a3.016,3.016,0,0,1,2.552-1.357,2.47,2.47,0,0,1,2.439,1.389,3.034,3.034,0,0,1,2.52-1.389c1.777,0,3.052.824,3.052,2.988v5.588H321.3v-4.732c0-1.115-.1-2.035-1.405-2.035-1.292,0-1.534,1.066-1.534,2.116v4.652h-2.293v-4.684c0-.969.065-2.084-1.389-2.084-.452,0-1.551.291-1.551,1.922v4.845h-2.294Z" transform="translate(-259.553 -316.515)" fill="#fff"/>
      <path id="Path_23132" data-name="Path 23132" d="M215.847,354.266c.129-2.148,2.051-2.794,3.925-2.794,1.664,0,3.667.371,3.667,2.374v4.345a4.288,4.288,0,0,0,.29,1.858H221.4a3.4,3.4,0,0,1-.161-.808,3.83,3.83,0,0,1-2.811,1.034c-1.583,0-2.843-.791-2.843-2.5,0-1.89,1.421-2.342,2.843-2.536,1.405-.21,2.714-.162,2.714-1.1,0-.985-.678-1.131-1.486-1.131-.872,0-1.438.355-1.518,1.26Zm5.3,1.7a4.553,4.553,0,0,1-1.906.485c-.711.145-1.357.388-1.357,1.228,0,.856.662,1.066,1.405,1.066a1.7,1.7,0,0,0,1.858-1.923Z" transform="translate(-215.589 -331.286)" fill="#fff"/>
      <path id="Path_23133" data-name="Path 23133" d="M237.3,351.472a4.4,4.4,0,1,1-4.312,4.409A4.1,4.1,0,0,1,237.3,351.472Zm0,7.074c1.567,0,2.036-1.341,2.036-2.665,0-1.341-.468-2.681-2.036-2.681-1.55,0-2.019,1.341-2.019,2.681C235.283,357.205,235.751,358.546,237.3,358.546Z" transform="translate(-223.62 -331.286)" fill="#fff"/>
      <path id="Path_23134" data-name="Path 23134" d="M261.57,357.335c.016,1,.856,1.406,1.76,1.406.662,0,1.5-.258,1.5-1.066,0-.7-.953-.937-2.6-1.292-1.324-.291-2.649-.759-2.649-2.23,0-2.132,1.842-2.68,3.634-2.68,1.826,0,3.505.613,3.683,2.665h-2.18c-.065-.889-.743-1.131-1.567-1.131-.517,0-1.276.1-1.276.775,0,.824,1.292.937,2.6,1.244,1.341.307,2.649.791,2.649,2.342,0,2.2-1.906,2.907-3.812,2.907-1.938,0-3.828-.727-3.925-2.94Z" transform="translate(-235.806 -331.286)" fill="#fff"/>
      <path id="Path_23135" data-name="Path 23135" d="M277.792,356.43c.065,1.453.775,2.116,2.051,2.116a1.888,1.888,0,0,0,1.809-1.082h2.019a3.756,3.756,0,0,1-3.909,2.811,4.079,4.079,0,0,1-4.264-4.393,4.188,4.188,0,0,1,4.264-4.409c2.843,0,4.216,2.39,4.054,4.958Zm3.731-1.454c-.21-1.163-.711-1.777-1.825-1.777a1.807,1.807,0,0,0-1.906,1.777Z" transform="translate(-243.241 -331.286)" fill="#fff"/>
      <path id="Path_23136" data-name="Path 23136" d="M301.3,360.242h-2.181v-1.163h-.049a2.977,2.977,0,0,1-2.552,1.389c-2.439,0-3.053-1.373-3.053-3.44v-5.136h2.294v4.716c0,1.372.4,2.051,1.47,2.051,1.244,0,1.777-.694,1.777-2.391v-4.376H301.3Z" transform="translate(-251.535 -331.479)" fill="#fff"/>
      <path id="Path_23137" data-name="Path 23137" d="M325.254,356.448h-.032a2.774,2.774,0,0,1-2.536,1.292c-2.52,0-3.747-2.164-3.747-4.474,0-2.245,1.244-4.329,3.7-4.329a2.874,2.874,0,0,1,2.471,1.243h.032v-4.2h2.294v11.533h-2.181Zm-2-5.783c-1.5,0-2.019,1.292-2.019,2.665,0,1.308.6,2.681,2.019,2.681,1.518,0,1.971-1.325,1.971-2.7C325.221,351.958,324.737,350.665,323.251,350.665Z" transform="translate(-263.291 -328.751)" fill="#fff"/>
      <path id="Path_23138" data-name="Path 23138" d="M340.342,347.871h-2.294v-1.89h2.294Zm-2.294,1.293h2.294v8.35h-2.294Z" transform="translate(-272.112 -328.751)" fill="#fff"/>
      <path id="Path_23139" data-name="Path 23139" d="M345.267,354.266c.129-2.148,2.051-2.794,3.925-2.794,1.664,0,3.667.371,3.667,2.374v4.345a4.279,4.279,0,0,0,.291,1.858h-2.325a3.349,3.349,0,0,1-.162-.808,3.831,3.831,0,0,1-2.811,1.034c-1.582,0-2.842-.791-2.842-2.5,0-1.89,1.421-2.342,2.842-2.536,1.405-.21,2.714-.162,2.714-1.1,0-.985-.678-1.131-1.486-1.131-.872,0-1.438.355-1.518,1.26Zm5.3,1.7a4.552,4.552,0,0,1-1.906.485c-.71.145-1.356.388-1.356,1.228,0,.856.662,1.066,1.405,1.066a1.7,1.7,0,0,0,1.857-1.923Z" transform="translate(-275.324 -331.286)" fill="#fff"/>
      <path id="Path_23140" data-name="Path 23140" d="M370.825,354.266c.129-2.148,2.052-2.794,3.925-2.794,1.664,0,3.666.371,3.666,2.374v4.345a4.286,4.286,0,0,0,.291,1.858h-2.326a3.4,3.4,0,0,1-.161-.808,3.83,3.83,0,0,1-2.81,1.034c-1.583,0-2.843-.791-2.843-2.5,0-1.89,1.421-2.342,2.843-2.536,1.4-.21,2.713-.162,2.713-1.1,0-.985-.678-1.131-1.486-1.131-.872,0-1.438.355-1.518,1.26Zm5.3,1.7a4.552,4.552,0,0,1-1.906.485c-.711.145-1.357.388-1.357,1.228,0,.856.663,1.066,1.405,1.066a1.7,1.7,0,0,0,1.858-1.923Z" transform="translate(-287.122 -331.286)" fill="#fff"/>
      <path id="Path_23141" data-name="Path 23141" d="M402.442,356.448h-.032a2.774,2.774,0,0,1-2.536,1.292c-2.52,0-3.748-2.164-3.748-4.474,0-2.245,1.243-4.329,3.7-4.329a2.874,2.874,0,0,1,2.471,1.243h.032v-4.2h2.294v11.533h-2.181Zm-2-5.783c-1.5,0-2.019,1.292-2.019,2.665,0,1.308.6,2.681,2.019,2.681,1.518,0,1.971-1.325,1.971-2.7C402.411,351.958,401.925,350.665,400.44,350.665Z" transform="translate(-298.919 -328.751)" fill="#fff"/>
      <path id="Path_23142" data-name="Path 23142" d="M417.531,347.871h-2.294v-1.89h2.294Zm-2.294,1.293h2.294v8.35h-2.294Z" transform="translate(-307.74 -328.751)" fill="#fff"/>
      <path id="Path_23143" data-name="Path 23143" d="M422.456,354.266c.129-2.148,2.051-2.794,3.925-2.794,1.664,0,3.666.371,3.666,2.374v4.345a4.286,4.286,0,0,0,.291,1.858h-2.326a3.392,3.392,0,0,1-.161-.808,3.831,3.831,0,0,1-2.811,1.034c-1.583,0-2.843-.791-2.843-2.5,0-1.89,1.421-2.342,2.843-2.536,1.405-.21,2.714-.162,2.714-1.1,0-.985-.678-1.131-1.486-1.131-.872,0-1.438.355-1.518,1.26Zm5.3,1.7a4.552,4.552,0,0,1-1.906.485c-.711.145-1.357.388-1.357,1.228,0,.856.662,1.066,1.405,1.066a1.7,1.7,0,0,0,1.858-1.923Z" transform="translate(-310.952 -331.286)" fill="#fff"/>
    </g>
  </g>
</svg>
