<svg xmlns="http://www.w3.org/2000/svg" width="298.523" height="108.917" viewBox="0 0 298.523 108.917">
  <g id="Group_18242" data-name="Group 18242" transform="translate(-47.158 -47.158)">
    <g id="Group_18240" data-name="Group 18240" transform="translate(47.158 47.158)">
      <g id="Group_18238" data-name="Group 18238">
        <path id="Path_23149" data-name="Path 23149" d="M47.158,47.158V156.075H156.075V47.158Z" transform="translate(-47.158 -47.158)" fill="#f59100"/>
      </g>
      <g id="Group_18239" data-name="Group 18239" transform="translate(18.868 22.883)">
        <path id="Path_23150" data-name="Path 23150" d="M96.088,108.372c0,5.615-1.233,9.929-7.533,9.929-7.052,0-7.806-5.067-7.806-9.175V76.935l-9.039,1.993v31.5c0,11.983,8.353,16.571,16.434,16.571,10.546,0,16.981-6.779,16.981-15.27V76.935l-9.037,1.993Z" transform="translate(-71.711 -76.935)" fill="#fff"/>
        <path id="Path_23151" data-name="Path 23151" d="M139.285,93.388a16.925,16.925,0,0,0-9.775,3.059v-5.12l-8.72,2.109v48.122l8.7-1.993V127.249a17.167,17.167,0,0,0,9.8,3.072c9.8,0,17.744-8.268,17.744-18.466S149.084,93.388,139.285,93.388Zm-.556,29c-5.82,0-10.065-4.862-10.065-10.546S132.91,101.3,138.729,101.3s10.066,4.862,10.066,10.545S144.55,122.386,138.729,122.386Z" transform="translate(-83.074 -80.267)" fill="#fff"/>
      </g>
    </g>
    <g id="Group_18241" data-name="Group 18241" transform="translate(175.29 79.194)">
      <path id="Path_23152" data-name="Path 23152" d="M215.005,88.846h11.572v3.043h-7.953v3.8h6.892v2.813h-6.892v6.8h-3.619Z" transform="translate(-214.152 -88.846)" fill="#f59100"/>
      <path id="Path_23153" data-name="Path 23153" d="M232.053,98.324c.185-3.066,2.928-3.988,5.6-3.988,2.375,0,5.233.53,5.233,3.389v6.2a6.1,6.1,0,0,0,.415,2.65h-3.32a4.861,4.861,0,0,1-.231-1.153,5.466,5.466,0,0,1-4.011,1.475c-2.259,0-4.058-1.13-4.058-3.573,0-2.7,2.029-3.342,4.058-3.619,2.006-.3,3.873-.231,3.873-1.568,0-1.406-.968-1.614-2.121-1.614-1.245,0-2.052.507-2.167,1.8Zm7.562,2.42c-.553.484-1.706.508-2.72.692-1.014.207-1.937.554-1.937,1.753,0,1.221.945,1.522,2.006,1.522a2.433,2.433,0,0,0,2.651-2.744Z" transform="translate(-218.014 -90.117)" fill="#f59100"/>
      <path id="Path_23154" data-name="Path 23154" d="M248.6,104.207l6.2-6.985h-5.74V94.756h10.051v2.467l-6.2,6.985h6.639v2.467H248.6Z" transform="translate(-221.931 -90.214)" fill="#f59100"/>
      <path id="Path_23155" data-name="Path 23155" d="M273.474,88.846h3.274V94.84h.046a4.4,4.4,0,0,1,3.758-1.775c2.375,0,4.934,1.913,4.934,6.271,0,4.38-2.559,6.293-4.934,6.293-1.752,0-3.2-.53-3.919-1.844h-.046v1.522h-3.112Zm5.948,6.686c-1.937,0-2.789,1.821-2.789,3.827,0,1.983.853,3.8,2.789,3.8s2.79-1.82,2.79-3.8C282.212,97.353,281.359,95.532,279.422,95.532Z" transform="translate(-227.689 -88.846)" fill="#f59100"/>
      <path id="Path_23156" data-name="Path 23156" d="M294.328,101.414c.092,2.074,1.107,3.019,2.927,3.019a2.7,2.7,0,0,0,2.582-1.545h2.882a5.362,5.362,0,0,1-5.579,4.011c-3.757,0-6.086-2.582-6.086-6.27a5.977,5.977,0,0,1,6.086-6.294c4.057,0,6.017,3.412,5.787,7.078Zm5.325-2.075c-.3-1.66-1.014-2.536-2.605-2.536a2.579,2.579,0,0,0-2.72,2.536Z" transform="translate(-231.76 -90.117)" fill="#f59100"/>
      <path id="Path_23157" data-name="Path 23157" d="M309.143,94.659h3.089v1.614h.046a4.3,4.3,0,0,1,3.643-1.937,3.527,3.527,0,0,1,3.481,1.983,4.329,4.329,0,0,1,3.6-1.983c2.535,0,4.356,1.176,4.356,4.265v7.976h-3.274V99.823c0-1.591-.138-2.9-2.006-2.9-1.844,0-2.19,1.522-2.19,3.02v6.639h-3.274V99.892c0-1.383.092-2.974-1.983-2.974-.646,0-2.212.415-2.212,2.743v6.915h-3.274Z" transform="translate(-235.948 -90.117)" fill="#f59100"/>
      <path id="Path_23158" data-name="Path 23158" d="M214.264,130.325c.184-3.066,2.928-3.988,5.6-3.988,2.375,0,5.233.529,5.233,3.388v6.2a6.107,6.107,0,0,0,.415,2.651h-3.319a4.856,4.856,0,0,1-.231-1.153,5.464,5.464,0,0,1-4.011,1.475c-2.259,0-4.058-1.13-4.058-3.573,0-2.7,2.028-3.343,4.058-3.62,2-.3,3.872-.231,3.872-1.568,0-1.406-.968-1.614-2.121-1.614-1.244,0-2.052.507-2.166,1.8Zm7.561,2.42c-.553.484-1.706.508-2.72.692-1.014.207-1.937.554-1.937,1.753,0,1.222.945,1.522,2,1.522a2.433,2.433,0,0,0,2.651-2.744Z" transform="translate(-213.895 -97.526)" fill="#f59100"/>
      <path id="Path_23159" data-name="Path 23159" d="M237.45,126.337c3.758,0,6.178,2.489,6.178,6.293,0,3.781-2.421,6.27-6.178,6.27-3.734,0-6.155-2.489-6.155-6.27C231.295,128.826,233.716,126.337,237.45,126.337Zm0,10.1c2.236,0,2.9-1.913,2.9-3.8,0-1.913-.669-3.827-2.9-3.827-2.213,0-2.882,1.913-2.882,3.827C234.568,134.52,235.236,136.433,237.45,136.433Z" transform="translate(-217.924 -97.526)" fill="#f59100"/>
      <path id="Path_23160" data-name="Path 23160" d="M260.807,134.7c.023,1.43,1.222,2.006,2.513,2.006.945,0,2.144-.369,2.144-1.522,0-.992-1.36-1.337-3.712-1.844-1.891-.415-3.781-1.084-3.781-3.182,0-3.042,2.628-3.825,5.187-3.825,2.605,0,5,.875,5.256,3.8H265.3c-.092-1.269-1.06-1.614-2.236-1.614-.738,0-1.821.138-1.821,1.107,0,1.176,1.844,1.337,3.712,1.775,1.913.438,3.781,1.129,3.781,3.343,0,3.135-2.72,4.149-5.441,4.149-2.766,0-5.464-1.037-5.6-4.2Z" transform="translate(-224.036 -97.526)" fill="#f59100"/>
      <path id="Path_23161" data-name="Path 23161" d="M277.078,133.414c.092,2.074,1.107,3.019,2.927,3.019a2.7,2.7,0,0,0,2.582-1.545h2.882a5.361,5.361,0,0,1-5.579,4.011c-3.757,0-6.086-2.582-6.086-6.27a5.977,5.977,0,0,1,6.086-6.293c4.058,0,6.017,3.411,5.787,7.077Zm5.325-2.075c-.3-1.66-1.014-2.536-2.605-2.536a2.579,2.579,0,0,0-2.72,2.536Z" transform="translate(-227.766 -97.526)" fill="#f59100"/>
      <path id="Path_23162" data-name="Path 23162" d="M302.954,138.674h-3.112v-1.66h-.069A4.251,4.251,0,0,1,296.13,139c-3.481,0-4.356-1.96-4.356-4.91v-7.33h3.273v6.731c0,1.959.576,2.927,2.1,2.927,1.775,0,2.536-.991,2.536-3.412v-6.246h3.274Z" transform="translate(-231.926 -97.624)" fill="#f59100"/>
      <path id="Path_23163" data-name="Path 23163" d="M326.257,135.785h-.045a3.959,3.959,0,0,1-3.62,1.844c-3.6,0-5.349-3.089-5.349-6.385,0-3.2,1.775-6.178,5.279-6.178a4.1,4.1,0,0,1,3.528,1.774h.045v-5.993h3.274v16.46h-3.112Zm-2.859-8.253c-2.144,0-2.882,1.844-2.882,3.8,0,1.867.853,3.826,2.882,3.826,2.167,0,2.813-1.89,2.813-3.85C326.212,129.376,325.519,127.532,323.4,127.532Z" transform="translate(-237.823 -96.255)" fill="#f59100"/>
      <path id="Path_23164" data-name="Path 23164" d="M339.627,123.543h-3.274v-2.7h3.274Zm-3.274,1.845h3.274v11.917h-3.274Z" transform="translate(-242.248 -96.255)" fill="#f59100"/>
      <path id="Path_23165" data-name="Path 23165" d="M343.683,130.325c.184-3.066,2.927-3.988,5.6-3.988,2.375,0,5.233.529,5.233,3.388v6.2a6.118,6.118,0,0,0,.415,2.651h-3.319a4.853,4.853,0,0,1-.231-1.153,5.466,5.466,0,0,1-4.011,1.475c-2.259,0-4.058-1.13-4.058-3.573,0-2.7,2.029-3.343,4.058-3.62,2.006-.3,3.873-.231,3.873-1.568,0-1.406-.968-1.614-2.121-1.614-1.245,0-2.052.507-2.167,1.8Zm7.561,2.42c-.553.484-1.706.508-2.72.692-1.014.207-1.937.554-1.937,1.753,0,1.222.945,1.522,2.006,1.522a2.433,2.433,0,0,0,2.651-2.744Z" transform="translate(-243.859 -97.526)" fill="#f59100"/>
      <path id="Path_23166" data-name="Path 23166" d="M369.241,130.325c.185-3.066,2.929-3.988,5.6-3.988,2.375,0,5.233.529,5.233,3.388v6.2a6.106,6.106,0,0,0,.415,2.651h-3.319a4.78,4.78,0,0,1-.231-1.153,5.467,5.467,0,0,1-4.011,1.475c-2.259,0-4.058-1.13-4.058-3.573,0-2.7,2.028-3.343,4.058-3.62,2-.3,3.872-.231,3.872-1.568,0-1.406-.968-1.614-2.121-1.614-1.245,0-2.052.507-2.166,1.8Zm7.562,2.42c-.553.484-1.706.508-2.72.692-1.014.207-1.936.554-1.936,1.753,0,1.222.945,1.522,2.006,1.522a2.433,2.433,0,0,0,2.65-2.744Z" transform="translate(-249.777 -97.526)" fill="#f59100"/>
      <path id="Path_23167" data-name="Path 23167" d="M403.446,135.785H403.4a3.958,3.958,0,0,1-3.619,1.844c-3.6,0-5.349-3.089-5.349-6.385,0-3.2,1.775-6.178,5.28-6.178a4.1,4.1,0,0,1,3.527,1.774h.046v-5.993h3.274v16.46h-3.112Zm-2.859-8.253c-2.144,0-2.882,1.844-2.882,3.8,0,1.867.854,3.826,2.882,3.826,2.166,0,2.813-1.89,2.813-3.85C403.4,129.376,402.708,127.532,400.587,127.532Z" transform="translate(-255.695 -96.255)" fill="#f59100"/>
      <path id="Path_23168" data-name="Path 23168" d="M416.817,123.543h-3.274v-2.7h3.274Zm-3.274,1.845h3.274v11.917h-3.274Z" transform="translate(-260.12 -96.255)" fill="#f59100"/>
      <path id="Path_23169" data-name="Path 23169" d="M420.872,130.325c.184-3.066,2.928-3.988,5.6-3.988,2.375,0,5.233.529,5.233,3.388v6.2a6.107,6.107,0,0,0,.415,2.651H428.8a4.779,4.779,0,0,1-.231-1.153,5.468,5.468,0,0,1-4.012,1.475c-2.259,0-4.057-1.13-4.057-3.573,0-2.7,2.028-3.343,4.057-3.62,2.006-.3,3.873-.231,3.873-1.568,0-1.406-.968-1.614-2.121-1.614-1.245,0-2.052.507-2.166,1.8Zm7.561,2.42c-.553.484-1.706.508-2.72.692-1.014.207-1.937.554-1.937,1.753,0,1.222.946,1.522,2.006,1.522a2.433,2.433,0,0,0,2.65-2.744Z" transform="translate(-261.731 -97.526)" fill="#f59100"/>
    </g>
  </g>
</svg>
