<svg xmlns="http://www.w3.org/2000/svg" xmlns:xlink="http://www.w3.org/1999/xlink" width="272" height="440.694" viewBox="0 0 272 440.694">
  <defs>
    <clipPath id="clip-path">
      <rect id="Rectangle_80380" data-name="Rectangle 80380" width="272" height="328.38" fill="#fb7621"/>
    </clipPath>
    <clipPath id="clip-path-2">
      <rect id="Rectangle_80382" data-name="Rectangle 80382" width="59.381" height="59.381" fill="#fb7621"/>
    </clipPath>
  </defs>
  <g id="Group_18499" data-name="Group 18499" transform="translate(-1623.96 -1726.652)">
    <g id="Group_18378" data-name="Group 18378" transform="translate(1623.96 1726.652)">
      <g id="Group_18377" data-name="Group 18377" clip-path="url(#clip-path)">
        <path id="Path_24115" data-name="Path 24115" d="M29.039,8.3l-.326,3.283-.326,3.286c-.015.158-.023.316-.025.474,0,.05,0,.1,0,.148,0,.108,0,.213.01.318,0,.06.013.12.018.18.01.1.018.188.033.281.01.063.023.125.033.188.018.09.035.178.055.263.015.065.033.128.05.19.023.085.045.168.073.248.02.065.043.128.065.19.028.08.058.16.09.238.025.063.053.123.08.183.035.078.073.155.11.231.03.058.06.118.093.175.043.075.088.148.13.221.035.055.068.113.105.165.048.075.1.145.153.218.038.05.073.1.11.15.06.075.125.148.188.223.035.04.068.08.105.12.1.1.193.2.3.3l.025.023c.11.1.226.2.346.3.04.03.083.06.125.09.08.06.16.12.246.175.05.035.105.065.155.1.08.048.16.1.241.143.058.03.118.058.175.088.073.038.148.075.226.11a5.754,5.754,0,0,0,.546.216h0l24.779,8.213A5.671,5.671,0,0,0,63.969,26,33.541,33.541,0,0,0,66.4,18.411q.2-1.06.338-2.128c.1-.762.175-1.529.218-2.3a33.464,33.464,0,0,0-.842-9.624,5.66,5.66,0,0,0-.175-.586c-.02-.058-.045-.115-.068-.173-.053-.13-.105-.261-.165-.386-.03-.063-.063-.125-.1-.185q-.094-.18-.2-.353c-.033-.055-.065-.108-.1-.16a5.239,5.239,0,0,0-.316-.429l-.03-.04a5.81,5.81,0,0,0-.4-.426c-.04-.04-.083-.078-.125-.118-.1-.093-.206-.183-.313-.268-.053-.043-.105-.083-.16-.123-.105-.078-.216-.153-.326-.223-.053-.035-.105-.07-.16-.1-.14-.083-.286-.16-.434-.231-.028-.013-.055-.03-.083-.043L62.9.486c-.118-.053-.238-.1-.358-.145C62.49.326,62.445.311,62.4.293q-.162-.053-.323-.1c-.045-.01-.088-.023-.133-.035-.15-.038-.3-.068-.454-.093L61.445.063C61.3.04,61.164.025,61.021.015c-.048-.005-.1-.005-.145-.008C60.761,0,60.645,0,60.528,0c-.048,0-.1,0-.145,0-.158.005-.318.018-.479.035l0,0L43.869,2.013,33.991,3.228c-.165.02-.326.048-.486.08s-.318.075-.471.123A5.667,5.667,0,0,0,29.039,8.3" transform="translate(42.72)" fill="#fb7621"/>
        <path id="Path_24116" data-name="Path 24116" d="M99.514,37.66c-.028-.045-.05-.09-.08-.133l-2.05-3.14L85.155,15.673l0,0c-.088-.135-.183-.266-.281-.388-.03-.04-.06-.078-.093-.115-.073-.088-.15-.175-.228-.261-.033-.035-.065-.07-.1-.105-.1-.1-.2-.2-.311-.293l-.03-.03c-.118-.1-.241-.2-.366-.288l-.11-.075c-.093-.065-.188-.128-.286-.185l-.123-.075c-.113-.063-.228-.123-.343-.18l-.068-.033-.085-.035c-.15-.068-.3-.128-.456-.183l-.18-.058c-.128-.038-.253-.075-.383-.105-.065-.015-.13-.03-.2-.043-.135-.028-.271-.048-.409-.065l-.17-.023a5.563,5.563,0,0,0-.579-.025l-.048,0c-.178,0-.358.015-.536.035-.063.008-.123.018-.183.025q-.2.03-.406.075c-.065.015-.133.03-.2.048-.135.035-.268.075-.4.123-.06.02-.118.038-.178.06a5.462,5.462,0,0,0-.559.243,33.576,33.576,0,0,0-4.007,2.4c-.489.341-.97.694-1.439,1.06-.3.228-.584.464-.872.7-.539.451-1.07.912-1.581,1.4a33.452,33.452,0,0,0-7.251,10.032,5.674,5.674,0,0,0,2.17,7.253L87.123,50.2h0a5.2,5.2,0,0,0,.519.278c.075.038.15.07.228.1.06.025.12.053.18.075.088.033.175.063.263.093.06.018.118.04.175.055.1.03.2.053.293.075.05.013.1.028.15.038.15.03.3.055.449.075l.033,0c.14.018.281.028.419.035.055,0,.108,0,.163,0,.1,0,.193.005.291,0,.06,0,.123-.008.185-.013q.132-.008.263-.023c.065-.008.13-.018.2-.028.083-.013.168-.025.253-.043.065-.013.128-.028.193-.043.083-.02.165-.04.248-.063.063-.018.128-.038.19-.058q.12-.038.241-.083c.063-.023.125-.048.188-.073.08-.033.158-.068.236-.105.06-.028.12-.055.18-.085q.117-.06.233-.128c.055-.033.113-.063.168-.1.078-.048.155-.1.233-.153.05-.035.1-.068.15-.105.085-.063.165-.128.248-.2.038-.033.078-.063.118-.1.118-.1.233-.213.343-.326l2.3-2.368,2.3-2.366a5.671,5.671,0,0,0,.759-6.922" transform="translate(93.62 19.738)" fill="#fb7621"/>
        <path id="Path_24117" data-name="Path 24117" d="M82.261,82.942l8.814-2.561c.178-.444.366-.882.569-1.321a26.281,26.281,0,1,1,8.459,32.368l-8.817,2.564a5.819,5.819,0,0,0-1.94.987,36.035,36.035,0,1,0-9.368-31.288c.749-.268,1.509-.524,2.283-.749" transform="translate(120.466 81.43)" fill="#fb7621"/>
        <path id="Path_24118" data-name="Path 24118" d="M242.64,154.411a15.909,15.909,0,0,0-22.311,11.318l-15.14,4.4a29.372,29.372,0,0,0-20.408,34.837c5.4,23.27,2.594,40.518-11.554,70.984-16.04,34.531-47.31,44.085-85.794,26.21-20.423-9.486-33.193-22.391-37.952-38.355-3.739-12.541-2.033-25.228.85-35.183a9.7,9.7,0,0,1,11.654-6.712c.03.008.058.015.088.02a81.309,81.309,0,0,0,72.373-17.541,12.237,12.237,0,0,0,4.1-10.95c.561-.642,1.118-1.288,1.662-1.95l60.844-74.012a40.53,40.53,0,0,0-1.529-53.215,13.187,13.187,0,0,1-1.877,2.464l-2.3,2.368-2.3,2.366a12.979,12.979,0,0,1-4.208,2.892,25.831,25.831,0,0,1,.86,33.792l-60.844,74.012q-.357.432-.722.857a12.23,12.23,0,0,0-9.742,2.872A56.739,56.739,0,0,1,24.5,142.336a12.222,12.222,0,0,0-4.078-9.271c.065-.391.133-.784.2-1.175l17.3-94.237A25.834,25.834,0,0,1,64.3,16.511c.233.01.464.015.7.03l.947-14.669c-.276-.018-.551-.02-.827-.033A40.53,40.53,0,0,0,23.472,35l-17.3,94.235c-.158.857-.3,1.717-.424,2.574A12.238,12.238,0,0,0,.006,142.033,81.331,81.331,0,0,0,32.75,208.165c.406.3.817.6,1.228.9a9.724,9.724,0,0,1,3.586,11.04c-4.246,12.5-7.484,29.94-2.205,47.779,5.987,20.233,21.426,36.25,45.884,47.609,23.15,10.752,45.238,13.04,63.879,6.614,17.817-6.143,32.145-19.96,41.433-39.962,7.794-16.782,12.16-29.534,14.155-41.35,2.148-12.719,1.634-25.16-1.612-39.147a14.669,14.669,0,0,1,10.193-17.4l15.138-4.4a15.916,15.916,0,1,0,18.21-25.431" transform="translate(-0.001 2.71)" fill="#fb7621"/>
      </g>
    </g>
    <g id="Group_18484" data-name="Group 18484" transform="translate(1789.692 2109.729) rotate(-14)">
      <g id="Group_18381" data-name="Group 18381" clip-path="url(#clip-path-2)">
        <path id="Path_24121" data-name="Path 24121" d="M39.882,26.9l-.3-9.61a1.854,1.854,0,0,0-1.911-1.8l-9.277.288a1.855,1.855,0,0,0-1.8,1.911l.3,9.61-9.61.3a1.854,1.854,0,0,0-1.8,1.911l.073,2.328.144,4.621.072,2.328a1.854,1.854,0,0,0,1.912,1.8l9.61-.3.3,9.61a1.854,1.854,0,0,0,1.911,1.8l9.276-.288a1.855,1.855,0,0,0,1.8-1.911l-.3-9.61,9.61-.3a1.855,1.855,0,0,0,1.8-1.912l-.072-2.328-.144-4.621L51.4,28.4a1.854,1.854,0,0,0-1.911-1.8Z" transform="translate(-3.901 -3.901)" fill="#fb7621"/>
        <path id="Path_24122" data-name="Path 24122" d="M56.674,17.289a29.778,29.778,0,1,0,2.693,11.479,29.577,29.577,0,0,0-2.693-11.479M53.812,28.941A24.133,24.133,0,1,1,28.94,5.569,24.16,24.16,0,0,1,53.812,28.941" transform="translate(0 0)" fill="#fb7621"/>
      </g>
    </g>
  </g>
</svg>
